<?xml version="1.0" encoding="UTF-8"?>
<!DOCTYPE svg PUBLIC "-//W3C//DTD SVG 1.1//EN" "http://www.w3.org/Graphics/SVG/1.1/DTD/svg11.dtd">
<svg xmlns="http://www.w3.org/2000/svg" version="1.1" width="120px" height="120px" style="shape-rendering:geometricPrecision; text-rendering:geometricPrecision; image-rendering:optimizeQuality; fill-rule:evenodd; clip-rule:evenodd" xmlns:xlink="http://www.w3.org/1999/xlink">
<g><path style="opacity:0.82" fill="#1d3b0f" d="M 26.5,10.5 C 25.1667,10.5 23.8333,10.5 22.5,10.5C 22.3398,12.1992 22.5065,13.8659 23,15.5C 24.7266,18.3914 26.2266,21.3914 27.5,24.5C 22.7631,20.3417 20.0964,15.0084 19.5,8.5C 22.2282,8.17057 24.5615,8.83724 26.5,10.5 Z"/></g>
<g><path style="opacity:1" fill="#f7ee10" d="M 26.5,10.5 C 36.3086,14.379 45.9753,18.7123 55.5,23.5C 53.9719,23.5173 53.4719,24.184 54,25.5C 55.7337,26.2489 57.567,26.7489 59.5,27C 60.3366,28.0113 60.67,29.1779 60.5,30.5C 53.0207,32.7525 45.3541,34.5859 37.5,36C 36.5291,37.4813 35.1958,38.3146 33.5,38.5C 32.3127,36.9275 31.3127,35.2608 30.5,33.5C 29.2134,30.5939 28.2134,27.5939 27.5,24.5C 26.2266,21.3914 24.7266,18.3914 23,15.5C 22.5065,13.8659 22.3398,12.1992 22.5,10.5C 23.8333,10.5 25.1667,10.5 26.5,10.5 Z"/></g>
<g><path style="opacity:1" fill="#304711" d="M 26.5,10.5 C 42.1559,14.6643 56.8226,20.9976 70.5,29.5C 65.5069,27.5132 60.5069,25.5132 55.5,23.5C 45.9753,18.7123 36.3086,14.379 26.5,10.5 Z"/></g>
<g><path style="opacity:1" fill="#eae829" d="M 55.5,23.5 C 60.5069,25.5132 65.5069,27.5132 70.5,29.5C 71.6594,31.2503 73.326,32.2503 75.5,32.5C 77.0544,33.8946 76.721,34.5613 74.5,34.5C 65.85,32.8547 57.5167,33.5214 49.5,36.5C 45.0184,36.0339 41.0184,37.0339 37.5,39.5C 35.544,41.1751 34.2107,40.8418 33.5,38.5C 35.1958,38.3146 36.5291,37.4813 37.5,36C 45.3541,34.5859 53.0207,32.7525 60.5,30.5C 60.67,29.1779 60.3366,28.0113 59.5,27C 57.567,26.7489 55.7337,26.2489 54,25.5C 53.4719,24.184 53.9719,23.5173 55.5,23.5 Z"/></g>
<g><path style="opacity:0.455" fill="#192a05" d="M 70.5,29.5 C 72.674,29.7497 74.3406,30.7497 75.5,32.5C 73.326,32.2503 71.6594,31.2503 70.5,29.5 Z"/></g>
<g><path style="opacity:1" fill="#44382e" d="M 75.5,32.5 C 76.4916,32.3284 77.1583,32.6618 77.5,33.5C 78.1667,34.8333 78.8333,36.1667 79.5,37.5C 78.8333,37.5 78.1667,37.5 77.5,37.5C 73.9084,35.3109 69.9084,34.3109 65.5,34.5C 60.272,35.7697 54.9386,36.4364 49.5,36.5C 57.5167,33.5214 65.85,32.8547 74.5,34.5C 76.721,34.5613 77.0544,33.8946 75.5,32.5 Z"/></g>
<g><path style="opacity:1" fill="#3d3125" d="M 49.5,36.5 C 45.9087,37.8294 42.242,39.1627 38.5,40.5C 37.8333,40.5 37.5,40.1667 37.5,39.5C 41.0184,37.0339 45.0184,36.0339 49.5,36.5 Z"/></g>
<g><path style="opacity:1" fill="#d5bdb2" d="M 77.5,37.5 C 76.1667,37.5 74.8333,37.5 73.5,37.5C 68.0105,35.3918 62.3439,35.5585 56.5,38C 54.1088,39.3086 54.1088,40.3086 56.5,41C 56.2716,41.3988 55.9382,41.5654 55.5,41.5C 50.258,41.0227 45.258,41.8561 40.5,44C 42.1667,44.3333 43.8333,44.6667 45.5,45C 41.7767,46.2587 40.7767,48.5921 42.5,52C 45.8168,52.4983 49.1501,52.665 52.5,52.5C 49.7719,53.2052 46.9386,53.8719 44,54.5C 42.4157,53.1387 40.5824,52.472 38.5,52.5C 38.5,53.5 38.5,54.5 38.5,55.5C 37.5,55.5 36.5,55.5 35.5,55.5C 39.4691,51.1462 40.4691,46.1462 38.5,40.5C 42.242,39.1627 45.9087,37.8294 49.5,36.5C 54.9386,36.4364 60.272,35.7697 65.5,34.5C 69.9084,34.3109 73.9084,35.3109 77.5,37.5 Z"/></g>
<g><path style="opacity:0.722" fill="#111508" d="M 77.5,33.5 C 84.4069,36.9607 88.0735,42.6274 88.5,50.5C 87.8333,49.8333 87.1667,49.1667 86.5,48.5C 86.1354,43.4891 83.8021,39.8224 79.5,37.5C 78.8333,36.1667 78.1667,34.8333 77.5,33.5 Z"/></g>
<g><path style="opacity:1" fill="#e3bfad" d="M 73.5,37.5 C 74.8333,37.5 76.1667,37.5 77.5,37.5C 78.1667,37.5 78.8333,37.5 79.5,37.5C 83.8021,39.8224 86.1354,43.4891 86.5,48.5C 86.5,52.8333 86.5,57.1667 86.5,61.5C 84.2591,62.2998 83.2591,63.9664 83.5,66.5C 81.8333,66.5 80.1667,66.5 78.5,66.5C 78.8064,63.6146 78.4731,60.9479 77.5,58.5C 76.3126,56.0246 74.3126,55.0246 71.5,55.5C 71.7508,52.7104 71.7508,49.7104 71.5,46.5C 72.2371,44.6954 73.2371,43.0287 74.5,41.5C 74.0431,40.7025 73.3764,40.3691 72.5,40.5C 71.1148,39.0527 71.4482,38.0527 73.5,37.5 Z"/></g>
<g><path style="opacity:1" fill="#221d1c" d="M 55.5,41.5 C 56.1667,42.1667 56.8333,42.8333 57.5,43.5C 53.8183,43.3347 50.1516,43.5014 46.5,44C 47.1667,44.3333 47.8333,44.6667 48.5,45C 47.3279,45.4186 46.3279,46.0853 45.5,47C 48.146,47.4974 50.8127,47.6641 53.5,47.5C 51.0781,49.3642 48.4114,49.8642 45.5,49C 46.1667,49.6667 46.8333,50.3333 47.5,51C 49.445,50.8718 51.2784,51.0385 53,51.5C 54.0386,50.7562 54.5386,49.7562 54.5,48.5C 55.4972,48.4701 56.1639,48.9701 56.5,50C 55.6443,51.5947 54.3109,52.428 52.5,52.5C 49.1501,52.665 45.8168,52.4983 42.5,52C 40.7767,48.5921 41.7767,46.2587 45.5,45C 43.8333,44.6667 42.1667,44.3333 40.5,44C 45.258,41.8561 50.258,41.0227 55.5,41.5 Z"/></g>
<g><path style="opacity:1" fill="#3a2928" d="M 72.5,40.5 C 73.3764,40.3691 74.0431,40.7025 74.5,41.5C 73.2371,43.0287 72.2371,44.6954 71.5,46.5C 70.2876,47.2299 69.2876,48.2299 68.5,49.5C 68.1667,49 67.8333,48.5 67.5,48C 70.1207,46.1992 71.7874,43.6992 72.5,40.5 Z"/></g>
<g><path style="opacity:1" fill="#788181" d="M 53.5,47.5 C 54.1667,47.5 54.5,47.8333 54.5,48.5C 54.5386,49.7562 54.0386,50.7562 53,51.5C 51.2784,51.0385 49.445,50.8718 47.5,51C 46.8333,50.3333 46.1667,49.6667 45.5,49C 48.4114,49.8642 51.0781,49.3642 53.5,47.5 Z"/></g>
<g><path style="opacity:1" fill="#e3beb2" d="M 73.5,37.5 C 71.4482,38.0527 71.1148,39.0527 72.5,40.5C 71.7874,43.6992 70.1207,46.1992 67.5,48C 67.8333,48.5 68.1667,49 68.5,49.5C 69.2876,48.2299 70.2876,47.2299 71.5,46.5C 71.7508,49.7104 71.7508,52.7104 71.5,55.5C 70.7387,56.3909 69.7387,57.0576 68.5,57.5C 67.5713,58.6888 67.238,60.0222 67.5,61.5C 66.8333,62.8333 66.1667,64.1667 65.5,65.5C 64.609,64.8902 63.609,64.5569 62.5,64.5C 63.008,61.6114 63.6747,58.7781 64.5,56C 63.062,55.7811 61.7287,55.2811 60.5,54.5C 63.6405,53.9095 66.6405,53.0761 69.5,52C 67.3302,49.6037 64.9968,47.2703 62.5,45C 60.7525,44.6481 59.0858,44.1481 57.5,43.5C 56.8333,42.8333 56.1667,42.1667 55.5,41.5C 55.9382,41.5654 56.2716,41.3988 56.5,41C 54.1088,40.3086 54.1088,39.3086 56.5,38C 62.3439,35.5585 68.0105,35.3918 73.5,37.5 Z"/></g>
<g><path style="opacity:1" fill="#e5bfad" d="M 57.5,43.5 C 59.0858,44.1481 60.7525,44.6481 62.5,45C 64.9968,47.2703 67.3302,49.6037 69.5,52C 66.6405,53.0761 63.6405,53.9095 60.5,54.5C 61.7287,55.2811 63.062,55.7811 64.5,56C 63.6747,58.7781 63.008,61.6114 62.5,64.5C 65.0678,67.1332 66.7345,70.2999 67.5,74C 66.9283,76.0736 65.595,77.2402 63.5,77.5C 61.5,77.5 59.5,77.5 57.5,77.5C 57.9416,79.9719 58.275,82.4719 58.5,85C 58.4313,86.9855 57.7647,88.4855 56.5,89.5C 56.0798,87.326 56.0798,85.326 56.5,83.5C 55.316,81.9539 54.316,80.2873 53.5,78.5C 52.4403,81.6471 50.607,84.6471 48,87.5C 47,86.1667 46,86.1667 45,87.5C 44.4867,86.4734 43.9867,85.4734 43.5,84.5C 44.64,83.1986 45.9733,82.0319 47.5,81C 44.8333,80.3333 44.8333,79.6667 47.5,79C 45.9634,76.2538 43.9634,73.9205 41.5,72C 42.3128,70.6861 43.3128,69.5195 44.5,68.5C 43.9953,67.0815 42.9953,66.4148 41.5,66.5C 41.1667,66.5 40.8333,66.5 40.5,66.5C 41.8028,63.8806 41.3028,61.5472 39,59.5C 38.6322,60.91 37.7989,61.91 36.5,62.5C 35.5344,60.604 35.2011,58.604 35.5,56.5C 35.5,56.1667 35.5,55.8333 35.5,55.5C 36.5,55.5 37.5,55.5 38.5,55.5C 38.5,54.5 38.5,53.5 38.5,52.5C 40.5824,52.472 42.4157,53.1387 44,54.5C 46.9386,53.8719 49.7719,53.2052 52.5,52.5C 54.3109,52.428 55.6443,51.5947 56.5,50C 56.1639,48.9701 55.4972,48.4701 54.5,48.5C 54.5,47.8333 54.1667,47.5 53.5,47.5C 50.8127,47.6641 48.146,47.4974 45.5,47C 46.3279,46.0853 47.3279,45.4186 48.5,45C 47.8333,44.6667 47.1667,44.3333 46.5,44C 50.1516,43.5014 53.8183,43.3347 57.5,43.5 Z"/></g>
<g><path style="opacity:1" fill="#3c302e" d="M 71.5,55.5 C 74.3126,55.0246 76.3126,56.0246 77.5,58.5C 77.665,61.8499 77.4983,65.1832 77,68.5C 75.9505,69.5171 74.7839,69.6838 73.5,69C 74.4162,68.6258 75.2496,68.1258 76,67.5C 76.7415,64.438 76.5748,61.438 75.5,58.5C 73.9255,57.3691 72.2588,57.2025 70.5,58C 69.1667,59.3333 69.1667,60.6667 70.5,62C 69.4232,62.4696 68.4232,62.3029 67.5,61.5C 67.238,60.0222 67.5713,58.6888 68.5,57.5C 69.7387,57.0576 70.7387,56.3909 71.5,55.5 Z"/></g>
<g><path style="opacity:0.945" fill="#324624" d="M 30.5,33.5 C 31.3127,35.2608 32.3127,36.9275 33.5,38.5C 34.2107,40.8418 35.544,41.1751 37.5,39.5C 37.5,40.1667 37.8333,40.5 38.5,40.5C 40.4691,46.1462 39.4691,51.1462 35.5,55.5C 35.5,55.8333 35.5,56.1667 35.5,56.5C 32.758,60.2801 29.758,63.9468 26.5,67.5C 28.8511,69.2289 31.5178,69.8956 34.5,69.5C 36.4241,69.7107 36.7574,70.3774 35.5,71.5C 33.4599,71.4359 31.1266,71.2692 28.5,71C 26.6969,70.3632 25.3636,69.1965 24.5,67.5C 28.6667,61.8333 32.8333,56.1667 37,50.5C 39.1296,47.3351 38.9629,44.3351 36.5,41.5C 34.9579,42.7468 33.4579,42.7468 32,41.5C 31.6253,38.9999 30.7919,36.6666 29.5,34.5C 29.6236,33.8933 29.9569,33.56 30.5,33.5 Z"/></g>
<g><path style="opacity:1" fill="#dcbfb3" d="M 35.5,56.5 C 35.2011,58.604 35.5344,60.604 36.5,62.5C 37.7989,61.91 38.6322,60.91 39,59.5C 41.3028,61.5472 41.8028,63.8806 40.5,66.5C 39.596,65.791 39.2627,64.791 39.5,63.5C 38.1266,63.3433 36.7932,63.51 35.5,64C 34.1337,66.4385 34.6337,66.9385 37,65.5C 38.1681,66.5089 39.3348,67.5089 40.5,68.5C 41.2975,68.0431 41.6309,67.3764 41.5,66.5C 42.9953,66.4148 43.9953,67.0815 44.5,68.5C 43.3128,69.5195 42.3128,70.6861 41.5,72C 43.9634,73.9205 45.9634,76.2538 47.5,79C 44.8333,79.6667 44.8333,80.3333 47.5,81C 45.9733,82.0319 44.64,83.1986 43.5,84.5C 42.0951,86.3789 40.4284,86.7122 38.5,85.5C 37.5,87.1667 36.1667,88.5 34.5,89.5C 33.7691,91.4012 33.7691,93.4012 34.5,95.5C 40.3756,95.5619 45.7089,93.8952 50.5,90.5C 52.4534,89.8444 54.4534,89.5111 56.5,89.5C 57.7647,88.4855 58.4313,86.9855 58.5,85C 58.275,82.4719 57.9416,79.9719 57.5,77.5C 59.5,77.5 61.5,77.5 63.5,77.5C 61.2783,78.5361 60.1116,80.2028 60,82.5C 60.3826,81.944 60.8826,81.6107 61.5,81.5C 60.962,83.1172 60.6287,84.7839 60.5,86.5C 63.0593,86.1984 65.3926,86.5318 67.5,87.5C 59.0248,89.6 51.0248,92.7667 43.5,97C 40.1832,97.4983 36.8499,97.665 33.5,97.5C 32.3515,95.8506 31.0182,94.3506 29.5,93C 29.7355,92.1268 30.0688,91.2935 30.5,90.5C 32.4219,89.289 34.2552,87.9557 36,86.5C 36.4828,85.552 36.6495,84.552 36.5,83.5C 37.9778,83.762 39.3112,83.4287 40.5,82.5C 38.5,81.8333 36.5,81.1667 34.5,80.5C 37.0272,79.7864 39.5272,79.1197 42,78.5C 43.1562,79.9928 43.9896,79.8261 44.5,78C 44.3865,76.7202 43.7199,75.8869 42.5,75.5C 41.3044,75.8457 41.3044,76.3457 42.5,77C 39.5,77.6667 36.5,77.6667 33.5,77C 35.2821,74.8101 37.2821,73.9767 39.5,74.5C 38.8333,73.8333 38.1667,73.1667 37.5,72.5C 38.7193,69.0515 37.7193,68.0515 34.5,69.5C 31.5178,69.8956 28.8511,69.2289 26.5,67.5C 29.758,63.9468 32.758,60.2801 35.5,56.5 Z"/></g>
<g><path style="opacity:1" fill="#3e312c" d="M 40.5,66.5 C 40.8333,66.5 41.1667,66.5 41.5,66.5C 41.6309,67.3764 41.2975,68.0431 40.5,68.5C 39.3348,67.5089 38.1681,66.5089 37,65.5C 34.6337,66.9385 34.1337,66.4385 35.5,64C 36.7932,63.51 38.1266,63.3433 39.5,63.5C 39.2627,64.791 39.596,65.791 40.5,66.5 Z"/></g>
<g><path style="opacity:1" fill="#d3beb2" d="M 77.5,58.5 C 78.4731,60.9479 78.8064,63.6146 78.5,66.5C 80.1667,66.5 81.8333,66.5 83.5,66.5C 83.2591,63.9664 84.2591,62.2998 86.5,61.5C 85.6099,64.9484 83.9432,67.9484 81.5,70.5C 80.788,69.2613 79.788,68.7613 78.5,69C 77.7334,70.4705 77.0668,71.9705 76.5,73.5C 75.8333,73.5 75.5,73.1667 75.5,72.5C 74.5263,70.9147 73.0263,69.9147 71,69.5C 70.5831,70.756 69.7498,71.4226 68.5,71.5C 67.5139,69.5739 66.5139,67.5739 65.5,65.5C 66.1667,64.1667 66.8333,62.8333 67.5,61.5C 68.4232,62.3029 69.4232,62.4696 70.5,62C 69.1667,60.6667 69.1667,59.3333 70.5,58C 72.2588,57.2025 73.9255,57.3691 75.5,58.5C 76.5748,61.438 76.7415,64.438 76,67.5C 75.2496,68.1258 74.4162,68.6258 73.5,69C 74.7839,69.6838 75.9505,69.5171 77,68.5C 77.4983,65.1832 77.665,61.8499 77.5,58.5 Z"/></g>
<g><path style="opacity:1" fill="#27201f" d="M 71.5,60.5 C 72.209,59.596 73.209,59.2627 74.5,59.5C 75.3029,63.1693 74.1362,65.836 71,67.5C 70.5172,66.552 70.3505,65.552 70.5,64.5C 71.5,64.5 72.5,64.5 73.5,64.5C 73.8432,62.5168 73.1765,61.1834 71.5,60.5 Z"/></g>
<g><path style="opacity:1" fill="#2e3122" d="M 34.5,69.5 C 37.7193,68.0515 38.7193,69.0515 37.5,72.5C 38.1667,73.1667 38.8333,73.8333 39.5,74.5C 37.2821,73.9767 35.2821,74.8101 33.5,77C 36.5,77.6667 39.5,77.6667 42.5,77C 41.3044,76.3457 41.3044,75.8457 42.5,75.5C 43.7199,75.8869 44.3865,76.7202 44.5,78C 43.9896,79.8261 43.1562,79.9928 42,78.5C 39.5272,79.1197 37.0272,79.7864 34.5,80.5C 36.5,81.1667 38.5,81.8333 40.5,82.5C 39.3112,83.4287 37.9778,83.762 36.5,83.5C 36.6495,84.552 36.4828,85.552 36,86.5C 34.2552,87.9557 32.4219,89.289 30.5,90.5C 30.0688,91.2935 29.7355,92.1268 29.5,93C 31.0182,94.3506 32.3515,95.8506 33.5,97.5C 30.659,96.7586 28.659,95.0919 27.5,92.5C 29.1152,89.2173 31.4485,86.5506 34.5,84.5C 28.8325,79.575 29.1658,75.2416 35.5,71.5C 36.7574,70.3774 36.4241,69.7107 34.5,69.5 Z"/></g>
<g><path style="opacity:1" fill="#e4bfae" d="M 81.5,70.5 C 81.7748,72.8418 82.6081,72.8418 84,70.5C 84.3599,72.6079 85.0266,74.6079 86,76.5C 86.1948,84.2884 87.0282,91.955 88.5,99.5C 88.5,99.8333 88.5,100.167 88.5,100.5C 83.9014,100.2 79.4014,100.533 75,101.5C 74.3333,100.833 74.3333,100.167 75,99.5C 77.1796,98.6538 78.6796,97.1538 79.5,95C 77.3732,93.0978 75.0398,91.4312 72.5,90C 73.7932,89.51 75.1266,89.3433 76.5,89.5C 76.5,87.8333 76.5,86.1667 76.5,84.5C 76.5,80.8333 76.5,77.1667 76.5,73.5C 77.0668,71.9705 77.7334,70.4705 78.5,69C 79.788,68.7613 80.788,69.2613 81.5,70.5 Z"/></g>
<g><path style="opacity:1" fill="#261b19" d="M 62.5,64.5 C 63.609,64.5569 64.609,64.8902 65.5,65.5C 66.5139,67.5739 67.5139,69.5739 68.5,71.5C 68.6602,73.1992 68.4935,74.8659 68,76.5C 65.9291,78.4375 63.7625,80.1041 61.5,81.5C 60.8826,81.6107 60.3826,81.944 60,82.5C 60.1116,80.2028 61.2783,78.5361 63.5,77.5C 65.595,77.2402 66.9283,76.0736 67.5,74C 66.7345,70.2999 65.0678,67.1332 62.5,64.5 Z"/></g>
<g><path style="opacity:1" fill="#dfbdb0" d="M 75.5,72.5 C 75.3542,75.9556 75.1876,79.6223 75,83.5C 73.1879,84.9771 71.3545,86.3104 69.5,87.5C 68.8333,87.5 68.1667,87.5 67.5,87.5C 65.3926,86.5318 63.0593,86.1984 60.5,86.5C 60.6287,84.7839 60.962,83.1172 61.5,81.5C 63.7625,80.1041 65.9291,78.4375 68,76.5C 68.4935,74.8659 68.6602,73.1992 68.5,71.5C 69.7498,71.4226 70.5831,70.756 71,69.5C 73.0263,69.9147 74.5263,70.9147 75.5,72.5 Z"/></g>
<g><path style="opacity:0.408" fill="#525639" d="M 86.5,48.5 C 87.1667,49.1667 87.8333,49.8333 88.5,50.5C 88.5302,57.8507 87.8636,64.8507 86.5,71.5C 87.9749,78.6132 88.9749,85.7799 89.5,93C 88.2613,95.1176 88.5946,96.951 90.5,98.5C 90.1583,99.3382 89.4916,99.6716 88.5,99.5C 87.0282,91.955 86.1948,84.2884 86,76.5C 85.0266,74.6079 84.3599,72.6079 84,70.5C 82.6081,72.8418 81.7748,72.8418 81.5,70.5C 83.9432,67.9484 85.6099,64.9484 86.5,61.5C 86.5,57.1667 86.5,52.8333 86.5,48.5 Z"/></g>
<g><path style="opacity:1" fill="#e5beab" d="M 56.5,89.5 C 54.4534,89.5111 52.4534,89.8444 50.5,90.5C 45.7089,93.8952 40.3756,95.5619 34.5,95.5C 33.7691,93.4012 33.7691,91.4012 34.5,89.5C 36.1667,88.5 37.5,87.1667 38.5,85.5C 40.4284,86.7122 42.0951,86.3789 43.5,84.5C 43.9867,85.4734 44.4867,86.4734 45,87.5C 46,86.1667 47,86.1667 48,87.5C 50.607,84.6471 52.4403,81.6471 53.5,78.5C 54.316,80.2873 55.316,81.9539 56.5,83.5C 56.0798,85.326 56.0798,87.326 56.5,89.5 Z"/></g>
<g><path style="opacity:1" fill="#291b18" d="M 75.5,72.5 C 75.5,73.1667 75.8333,73.5 76.5,73.5C 76.5,77.1667 76.5,80.8333 76.5,84.5C 74.7867,86.8504 72.4534,87.8504 69.5,87.5C 71.3545,86.3104 73.1879,84.9771 75,83.5C 75.1876,79.6223 75.3542,75.9556 75.5,72.5 Z"/></g>
<g><path style="opacity:0.337" fill="#3e3724" d="M 67.5,87.5 C 68.1667,87.5 68.8333,87.5 69.5,87.5C 68.8333,88.1667 68.1667,88.8333 67.5,89.5C 64.2107,90.3739 60.8774,91.0405 57.5,91.5C 57.448,93.9029 57.7814,96.2362 58.5,98.5C 59.2178,100.137 59.3845,101.803 59,103.5C 58.3292,102.748 57.4959,102.414 56.5,102.5C 49.0093,103.655 42.3426,106.655 36.5,111.5C 36.5106,109.983 37.1772,108.816 38.5,108C 43.6948,104.826 49.1948,102.326 55,100.5C 56.1313,101.604 56.9646,101.271 57.5,99.5C 56.2528,97.677 55.5861,95.677 55.5,93.5C 50.2256,94.5576 45.3922,96.5576 41,99.5C 38.2918,99.1331 35.7918,98.4665 33.5,97.5C 36.8499,97.665 40.1832,97.4983 43.5,97C 51.0248,92.7667 59.0248,89.6 67.5,87.5 Z"/></g>
<g><path style="opacity:1" fill="#dfbeae" d="M 67.5,89.5 C 68.8333,89.5 70.1667,89.5 71.5,89.5C 71.6621,91.5273 71.4955,93.5273 71,95.5C 70.2588,94.3595 69.4255,94.3595 68.5,95.5C 68.2606,98.696 66.5939,100.529 63.5,101C 64.4158,101.278 65.0825,101.778 65.5,102.5C 65.1667,103.167 64.8333,103.833 64.5,104.5C 65.3065,105.728 66.3065,106.728 67.5,107.5C 63.6183,109.934 59.9516,112.601 56.5,115.5C 55.4168,115.539 54.4168,115.873 53.5,116.5C 53.71,111.762 55.8766,107.762 60,104.5C 60.9411,102.011 60.4411,100.011 58.5,98.5C 57.7814,96.2362 57.448,93.9029 57.5,91.5C 60.8774,91.0405 64.2107,90.3739 67.5,89.5 Z"/></g>
<g><path style="opacity:1" fill="#2f2422" d="M 64.5,104.5 C 64.8333,103.833 65.1667,103.167 65.5,102.5C 69.9821,100.678 72.6487,97.3451 73.5,92.5C 73.7197,98.6479 70.7197,102.648 64.5,104.5 Z"/></g>
<g><path style="opacity:0.998" fill="#773836" d="M 119.5,103.5 C 119.5,103.833 119.5,104.167 119.5,104.5C 117.621,104.393 117.288,104.893 118.5,106C 112.418,106.766 106.751,108.599 101.5,111.5C 101.5,110.5 101.5,109.5 101.5,108.5C 106.211,107.874 110.711,106.541 115,104.5C 115.617,103.551 115.451,102.718 114.5,102C 107.698,99.6122 100.698,98.9456 93.5,100C 89.4411,102.014 85.1077,103.181 80.5,103.5C 83.0204,102.082 85.6871,101.082 88.5,100.5C 88.5,100.167 88.5,99.8333 88.5,99.5C 89.4916,99.6716 90.1583,99.3382 90.5,98.5C 96.4717,97.5261 102.472,97.3594 108.5,98C 112.768,98.8011 116.435,100.634 119.5,103.5 Z"/></g>
<g><path style="opacity:1" fill="#f3044a" d="M 101.5,111.5 C 100.833,112.833 99.8333,113.833 98.5,114.5C 97.8333,114.5 97.1667,114.5 96.5,114.5C 95.4773,111.164 93.144,109.664 89.5,110C 91.0249,108.991 92.6916,108.491 94.5,108.5C 94.6495,107.448 94.4828,106.448 94,105.5C 89.3598,106.01 84.8598,107.01 80.5,108.5C 78.2178,107.777 75.8845,107.443 73.5,107.5C 76.0604,106.412 78.3937,105.079 80.5,103.5C 85.1077,103.181 89.4411,102.014 93.5,100C 100.698,98.9456 107.698,99.6122 114.5,102C 115.451,102.718 115.617,103.551 115,104.5C 110.711,106.541 106.211,107.874 101.5,108.5C 101.5,109.5 101.5,110.5 101.5,111.5 Z"/></g>
<g><path style="opacity:1" fill="#dabbad" d="M 76.5,84.5 C 76.5,86.1667 76.5,87.8333 76.5,89.5C 75.1266,89.3433 73.7932,89.51 72.5,90C 75.0398,91.4312 77.3732,93.0978 79.5,95C 78.6796,97.1538 77.1796,98.6538 75,99.5C 74.3333,100.167 74.3333,100.833 75,101.5C 79.4014,100.533 83.9014,100.2 88.5,100.5C 85.6871,101.082 83.0204,102.082 80.5,103.5C 75.9166,104.082 71.5833,105.415 67.5,107.5C 66.3065,106.728 65.3065,105.728 64.5,104.5C 70.7197,102.648 73.7197,98.6479 73.5,92.5C 72.6487,97.3451 69.9821,100.678 65.5,102.5C 65.0825,101.778 64.4158,101.278 63.5,101C 66.5939,100.529 68.2606,98.696 68.5,95.5C 69.4255,94.3595 70.2588,94.3595 71,95.5C 71.4955,93.5273 71.6621,91.5273 71.5,89.5C 70.1667,89.5 68.8333,89.5 67.5,89.5C 68.1667,88.8333 68.8333,88.1667 69.5,87.5C 72.4534,87.8504 74.7867,86.8504 76.5,84.5 Z"/></g>
<g><path style="opacity:1" fill="#ea064a" d="M 56.5,102.5 C 55.85,106.14 54.35,109.473 52,112.5C 51.5065,114.134 51.3398,115.801 51.5,117.5C 53.698,117.88 55.3646,117.213 56.5,115.5C 59.0384,114.957 61.3718,113.957 63.5,112.5C 60.9679,115.36 57.9679,117.693 54.5,119.5C 47.1667,119.5 39.8333,119.5 32.5,119.5C 35.4074,117.685 36.7407,115.019 36.5,111.5C 42.3426,106.655 49.0093,103.655 56.5,102.5 Z"/></g>
<g><path style="opacity:1" fill="#421c1a" d="M 58.5,98.5 C 60.4411,100.011 60.9411,102.011 60,104.5C 55.8766,107.762 53.71,111.762 53.5,116.5C 54.4168,115.873 55.4168,115.539 56.5,115.5C 55.3646,117.213 53.698,117.88 51.5,117.5C 51.3398,115.801 51.5065,114.134 52,112.5C 54.35,109.473 55.85,106.14 56.5,102.5C 57.4959,102.414 58.3292,102.748 59,103.5C 59.3845,101.803 59.2178,100.137 58.5,98.5 Z"/></g>
<g><path style="opacity:1" fill="#fc004d" d="M 96.5,114.5 C 95.5592,116.05 94.8925,117.716 94.5,119.5C 81.1667,119.5 67.8333,119.5 54.5,119.5C 57.9679,117.693 60.9679,115.36 63.5,112.5C 66.2951,109.769 69.6284,108.102 73.5,107.5C 75.8845,107.443 78.2178,107.777 80.5,108.5C 84.8598,107.01 89.3598,106.01 94,105.5C 94.4828,106.448 94.6495,107.448 94.5,108.5C 92.6916,108.491 91.0249,108.991 89.5,110C 93.144,109.664 95.4773,111.164 96.5,114.5 Z"/></g>
<g><path style="opacity:1" fill="#e2bfaf" d="M 119.5,104.5 C 119.5,109.5 119.5,114.5 119.5,119.5C 113.167,119.5 106.833,119.5 100.5,119.5C 101.091,118.849 101.757,118.182 102.5,117.5C 100.922,116.702 99.2556,116.202 97.5,116C 98.056,115.617 98.3893,115.117 98.5,114.5C 99.8333,113.833 100.833,112.833 101.5,111.5C 106.751,108.599 112.418,106.766 118.5,106C 117.288,104.893 117.621,104.393 119.5,104.5 Z"/></g>
<g><path style="opacity:1" fill="#540f16" d="M 80.5,103.5 C 78.3937,105.079 76.0604,106.412 73.5,107.5C 69.6284,108.102 66.2951,109.769 63.5,112.5C 61.3718,113.957 59.0384,114.957 56.5,115.5C 59.9516,112.601 63.6183,109.934 67.5,107.5C 71.5833,105.415 75.9166,104.082 80.5,103.5 Z"/></g>
<g><path style="opacity:0.914" fill="#663231" d="M 36.5,111.5 C 36.7407,115.019 35.4074,117.685 32.5,119.5C 31.8333,119.5 31.1667,119.5 30.5,119.5C 32.9449,117.07 34.9449,114.404 36.5,111.5 Z"/></g>
<g><path style="opacity:1" fill="#70292e" d="M 96.5,114.5 C 97.1667,114.5 97.8333,114.5 98.5,114.5C 98.3893,115.117 98.056,115.617 97.5,116C 99.2556,116.202 100.922,116.702 102.5,117.5C 101.757,118.182 101.091,118.849 100.5,119.5C 98.5,119.5 96.5,119.5 94.5,119.5C 94.8925,117.716 95.5592,116.05 96.5,114.5 Z"/></g>
</svg>
